<svg width="43" height="42" viewBox="0 0 43 42" fill="none" xmlns="http://www.w3.org/2000/svg">
<path d="M29.1247 29.25H13.9747C13.7901 29.2491 13.6122 29.1811 13.4742 29.0586C13.3362 28.9361 13.2475 28.7675 13.2247 28.5844L11.8934 16.5844C11.8816 16.4798 11.8919 16.3739 11.9236 16.2736C11.9554 16.1733 12.0079 16.0808 12.0778 16.0021C12.1476 15.9234 12.2332 15.8603 12.3291 15.8169C12.4249 15.7734 12.5288 15.7506 12.6341 15.75H30.4653C30.5705 15.7506 30.6744 15.7734 30.7703 15.8169C30.8661 15.8603 30.9518 15.9234 31.0216 16.0021C31.0915 16.0808 31.144 16.1733 31.1757 16.2736C31.2075 16.3739 31.2178 16.4798 31.2059 16.5844L29.8747 28.5844C29.8519 28.7675 29.7632 28.9361 29.6252 29.0586C29.4871 29.1811 29.3092 29.2491 29.1247 29.25V29.25Z" stroke="#1F1F23" stroke-width="1.5" stroke-linecap="round" stroke-linejoin="round"/>
<path d="M17.7988 18.75V15.75C17.7988 14.7554 18.1939 13.8016 18.8972 13.0983C19.6004 12.3951 20.5543 12 21.5488 12C22.5434 12 23.4972 12.3951 24.2005 13.0983C24.9037 13.8016 25.2988 14.7554 25.2988 15.75V18.75" stroke="#1F1F23" stroke-width="1.5" stroke-linecap="round" stroke-linejoin="round"/>
</svg>
