<svg width="43" height="42" viewBox="0 0 43 42" fill="none" xmlns="http://www.w3.org/2000/svg">
<path d="M18.5391 30H24.5391" stroke="#1F1F23" stroke-width="1.5" stroke-linecap="round" stroke-linejoin="round"/>
<path d="M14.8169 18.75C14.8156 17.8608 14.9903 16.9802 15.3309 16.1589C15.6714 15.3375 16.1711 14.5917 16.8011 13.9643C17.4311 13.3369 18.179 12.8403 19.0018 12.5032C19.8246 12.166 20.7059 11.995 21.595 12C25.3075 12.0281 28.2794 15.1125 28.2794 18.8344V19.5C28.2794 22.8562 28.9825 24.8062 29.6013 25.875C29.667 25.9888 29.7016 26.1179 29.7017 26.2493C29.7019 26.3808 29.6674 26.5099 29.6019 26.6238C29.5364 26.7378 29.4421 26.8325 29.3285 26.8985C29.2148 26.9645 29.0858 26.9995 28.9544 27H14.1419C14.0105 26.9995 13.8815 26.9645 13.7678 26.8985C13.6542 26.8325 13.5599 26.7378 13.4944 26.6238C13.4288 26.5099 13.3944 26.3808 13.3945 26.2493C13.3946 26.1179 13.4293 25.9888 13.495 25.875C14.1138 24.8062 14.8169 22.8562 14.8169 19.5V18.75Z" stroke="#1F1F23" stroke-width="1.5" stroke-linecap="round" stroke-linejoin="round"/>
</svg>
