<svg width="25" height="24" viewBox="0 0 25 24" fill="none" xmlns="http://www.w3.org/2000/svg">
<path d="M12.5508 12.75C14.2076 12.75 15.5508 11.4069 15.5508 9.75C15.5508 8.09315 14.2076 6.75 12.5508 6.75C10.8939 6.75 9.55078 8.09315 9.55078 9.75C9.55078 11.4069 10.8939 12.75 12.5508 12.75Z" stroke="#1F1F23" stroke-width="1.5" stroke-linecap="round" stroke-linejoin="round"/>
<path d="M20.0508 9.75C20.0508 16.5 12.5508 21.75 12.5508 21.75C12.5508 21.75 5.05078 16.5 5.05078 9.75C5.05078 7.76088 5.84096 5.85322 7.24748 4.4467C8.654 3.04018 10.5617 2.25 12.5508 2.25C14.5399 2.25 16.4476 3.04018 17.8541 4.4467C19.2606 5.85322 20.0508 7.76088 20.0508 9.75V9.75Z" stroke="#1F1F23" stroke-width="1.5" stroke-linecap="round" stroke-linejoin="round"/>
</svg>
