<svg width="153" height="44" viewBox="0 0 153 44" fill="none" xmlns="http://www.w3.org/2000/svg">
<path d="M146.975 44H5.94962C2.84847 44 0.308594 41.5236 0.308594 38.5V5.5C0.308594 2.47638 2.84847 -9.53674e-07 5.94962 -9.53674e-07H146.975C150.076 -9.53674e-07 152.616 2.47638 152.616 5.5V38.5C152.616 41.5236 150.076 44 146.975 44Z" fill="white"/>
<path d="M146.975 0.881371C149.587 0.881371 151.712 2.9535 151.712 5.5V38.5C151.712 41.0465 149.587 43.1186 146.975 43.1186H5.94962C3.33782 43.1186 1.21257 41.0465 1.21257 38.5V5.5C1.21257 2.9535 3.33782 0.881371 5.94962 0.881371H146.975ZM146.975 -9.53674e-07H5.94962C2.84847 -9.53674e-07 0.308594 2.47638 0.308594 5.5V38.5C0.308594 41.5236 2.84847 44 5.94962 44H146.975C150.076 44 152.616 41.5236 152.616 38.5V5.5C152.616 2.47638 150.076 -9.53674e-07 146.975 -9.53674e-07Z" fill="#A6A6A6"/>
<path d="M12.0818 8.2926C11.7504 8.63086 11.5586 9.15748 11.5586 9.83948V34.166C11.5586 34.848 11.7504 35.3746 12.0818 35.7129L12.1636 35.7871L26.1449 22.1609V21.8391L12.1636 8.21286L12.0818 8.2926Z" fill="url(#paint0_linear_1097_15039)"/>
<path d="M30.7998 26.7053L26.1445 22.1609V21.8392L30.8054 17.2948L30.9098 17.3539L36.4295 20.4161C38.0048 21.2851 38.0048 22.7151 36.4295 23.5896L30.9098 26.6462L30.7998 26.7053Z" fill="url(#paint1_linear_1097_15039)"/>
<path d="M30.9104 26.6462L26.1451 22.0001L12.082 35.713C12.6052 36.2492 13.4584 36.3138 14.4287 35.7776L30.9104 26.6462Z" fill="url(#paint2_linear_1097_15039)"/>
<path d="M30.9104 17.3539L14.4287 8.2225C13.4584 7.69175 12.6052 7.75638 12.082 8.29263L26.1451 22L30.9104 17.3539Z" fill="url(#paint3_linear_1097_15039)"/>
<path d="M53.8035 11.2681C53.8035 12.1866 53.5214 12.9223 52.9658 13.4709C52.327 14.1213 51.4949 14.4485 50.4753 14.4485C49.5008 14.4485 48.6688 14.1158 47.9862 13.4599C47.3022 12.7944 46.9609 11.9776 46.9609 11C46.9609 10.0224 47.3022 9.20564 47.9862 8.54564C48.6688 7.88426 49.5008 7.55151 50.4753 7.55151C50.9604 7.55151 51.423 7.64914 51.8644 7.83064C52.3044 8.01351 52.6626 8.26101 52.9221 8.56626L52.3326 9.14651C51.8799 8.62539 51.2636 8.36826 50.4753 8.36826C49.7645 8.36826 49.1482 8.61026 48.625 9.09839C48.1075 9.58789 47.848 10.2218 47.848 11C47.848 11.7783 48.1075 12.4176 48.625 12.9071C49.1482 13.3898 49.7645 13.6373 50.4753 13.6373C51.2298 13.6373 51.8644 13.3898 52.365 12.9016C52.695 12.5785 52.8826 12.133 52.932 11.5638H50.4753V10.769H53.7527C53.7922 10.9409 53.8035 11.1073 53.8035 11.2681Z" fill="black" stroke="black" stroke-width="0.16" stroke-miterlimit="10"/>
<path d="M59.0048 8.51251H55.9262V10.6025H58.7016V11.3973H55.9262V13.4873H59.0048V14.2971H55.0547V7.70264H59.0048V8.51251Z" fill="black" stroke="black" stroke-width="0.16" stroke-miterlimit="10"/>
<path d="M62.6739 14.2971H61.8024V8.51251H59.9141V7.70264H64.5637V8.51251H62.6739V14.2971Z" fill="black" stroke="black" stroke-width="0.16" stroke-miterlimit="10"/>
<path d="M67.9258 14.2971V7.70264H68.7959V14.2971H67.9258Z" fill="black" stroke="black" stroke-width="0.16" stroke-miterlimit="10"/>
<path d="M72.6544 14.2971H71.7899V8.51251H69.8945V7.70264H74.5498V8.51251H72.6544V14.2971Z" fill="black" stroke="black" stroke-width="0.16" stroke-miterlimit="10"/>
<path d="M83.3518 13.4489C82.6847 14.1158 81.8583 14.4485 80.8725 14.4485C79.8811 14.4485 79.0547 14.1158 78.3877 13.4489C77.722 12.7834 77.3906 11.9666 77.3906 11C77.3906 10.0334 77.722 9.21664 78.3877 8.55114C79.0547 7.88426 79.8811 7.55151 80.8725 7.55151C81.8527 7.55151 82.6791 7.88426 83.3461 8.55664C84.0174 9.22764 84.3488 10.0389 84.3488 11C84.3488 11.9666 84.0174 12.7834 83.3518 13.4489ZM79.0322 12.8961C79.5342 13.3898 80.1449 13.6373 80.8725 13.6373C81.5946 13.6373 82.2109 13.3898 82.7073 12.8961C83.2079 12.4025 83.4618 11.7686 83.4618 11C83.4618 10.2314 83.2079 9.59751 82.7073 9.10389C82.2109 8.61026 81.5946 8.36276 80.8725 8.36276C80.1449 8.36276 79.5342 8.61026 79.0322 9.10389C78.5315 9.59751 78.2777 10.2314 78.2777 11C78.2777 11.7686 78.5315 12.4025 79.0322 12.8961Z" fill="black" stroke="black" stroke-width="0.16" stroke-miterlimit="10"/>
<path d="M85.5742 14.2971V7.70264H86.6319L89.9206 12.8314H89.9587L89.9206 11.5636V7.70264H90.7908V14.2971H89.8825L86.4387 8.91539H86.4006L86.4387 10.1886V14.2971H85.5742Z" fill="black" stroke="black" stroke-width="0.16" stroke-miterlimit="10"/>
<path d="M77.1781 23.9279C74.5282 23.9279 72.3635 25.8941 72.3635 28.607C72.3635 31.2979 74.5282 33.2847 77.1781 33.2847C79.8336 33.2847 81.9983 31.2979 81.9983 28.607C81.9983 25.8941 79.8336 23.9279 77.1781 23.9279ZM77.1781 31.4422C75.7241 31.4422 74.4732 30.2721 74.4732 28.607C74.4732 26.9199 75.7241 25.7704 77.1781 25.7704C78.632 25.7704 79.8886 26.9199 79.8886 28.607C79.8886 30.2721 78.632 31.4422 77.1781 31.4422ZM66.6731 23.9279C64.0176 23.9279 61.8585 25.8941 61.8585 28.607C61.8585 31.2979 64.0176 33.2847 66.6731 33.2847C69.3272 33.2847 71.4877 31.2979 71.4877 28.607C71.4877 25.8941 69.3272 23.9279 66.6731 23.9279ZM66.6731 31.4422C65.2177 31.4422 63.9626 30.2721 63.9626 28.607C63.9626 26.9199 65.2177 25.7704 66.6731 25.7704C68.1271 25.7704 69.378 26.9199 69.378 28.607C69.378 30.2721 68.1271 31.4422 66.6731 31.4422ZM54.1726 25.362V27.3502H59.0422C58.8998 28.4612 58.519 29.278 57.9351 29.8472C57.2244 30.5347 56.1173 31.2979 54.1726 31.2979C51.1758 31.2979 48.8291 28.9397 48.8291 26.0179C48.8291 23.096 51.1758 20.7379 54.1726 20.7379C55.793 20.7379 56.9719 21.3552 57.8421 22.1555L59.2791 20.7544C58.0621 19.6214 56.4431 18.751 54.1726 18.751C50.0631 18.751 46.6094 22.0111 46.6094 26.0179C46.6094 30.0246 50.0631 33.2847 54.1726 33.2847C56.3937 33.2847 58.0621 32.5752 59.3736 31.2442C60.7176 29.9339 61.1364 28.0914 61.1364 26.6036C61.1364 26.1416 61.0969 25.7167 61.0264 25.362H54.1726ZM105.289 26.9034C104.892 25.857 103.67 23.9279 101.179 23.9279C98.7113 23.9279 96.6565 25.824 96.6565 28.607C96.6565 31.2277 98.6901 33.2847 101.416 33.2847C103.62 33.2847 104.892 31.9744 105.416 31.2112L103.78 30.1484C103.234 30.9266 102.491 31.4422 101.416 31.4422C100.349 31.4422 99.5828 30.9651 99.092 30.0246L105.51 27.4355L105.289 26.9034ZM98.7451 28.4612C98.6901 26.6572 100.182 25.7332 101.251 25.7332C102.089 25.7332 102.8 26.1416 103.037 26.726L98.7451 28.4612ZM93.5286 33.0001H95.6383V19.2501H93.5286V33.0001ZM90.0735 24.9701H90.0029C89.5291 24.4229 88.6251 23.9279 87.48 23.9279C85.0769 23.9279 82.8797 25.9849 82.8797 28.6221C82.8797 31.2442 85.0769 33.2847 87.48 33.2847C88.6251 33.2847 89.5291 32.7856 90.0029 32.2219H90.0735V32.8929C90.0735 34.6817 89.0933 35.6429 87.5124 35.6429C86.2235 35.6429 85.4238 34.7354 85.0938 33.9722L83.2591 34.7189C83.7879 35.9591 85.1883 37.4854 87.5124 37.4854C89.986 37.4854 92.0732 36.0664 92.0732 32.6137V24.2125H90.0735V24.9701ZM87.6605 31.4422C86.2065 31.4422 84.9895 30.2556 84.9895 28.6221C84.9895 26.9735 86.2065 25.7704 87.6605 25.7704C89.0933 25.7704 90.2229 26.9735 90.2229 28.6221C90.2229 30.2556 89.0933 31.4422 87.6605 31.4422ZM115.166 19.2501H110.12V33.0001H112.224V27.7902H115.166C117.503 27.7902 119.795 26.1416 119.795 23.5195C119.795 20.8987 117.497 19.2501 115.166 19.2501ZM115.221 25.8776H112.224V21.1627H115.221C116.792 21.1627 117.689 22.4346 117.689 23.5195C117.689 24.5837 116.792 25.8776 115.221 25.8776ZM128.228 23.9017C126.708 23.9017 125.127 24.5562 124.477 26.0069L126.344 26.77C126.746 26.0069 127.485 25.7594 128.266 25.7594C129.358 25.7594 130.465 26.3987 130.482 27.5276V27.672C130.101 27.4575 129.286 27.1399 128.283 27.1399C126.272 27.1399 124.223 28.2192 124.223 30.2336C124.223 32.0761 125.87 33.2627 127.722 33.2627C129.138 33.2627 129.919 32.6399 130.41 31.9152H130.482V32.9781H132.514V27.7036C132.514 25.2657 130.647 23.9017 128.228 23.9017ZM127.974 31.4367C127.286 31.4367 126.327 31.104 126.327 30.2721C126.327 29.2079 127.523 28.7995 128.558 28.7995C129.484 28.7995 129.919 28.9989 130.482 29.2615C130.317 30.5347 129.193 31.4367 127.974 31.4367ZM139.918 24.2029L137.499 30.1635H137.427L134.927 24.2029H132.658L136.414 32.5326L134.271 37.1677H136.469L142.259 24.2029H139.918ZM120.951 33.0001H123.061V19.2501H120.951V33.0001Z" fill="black"/>
<defs>
<linearGradient id="paint0_linear_1097_15039" x1="24.9035" y1="34.4193" x2="6.44878" y2="15.4914" gradientUnits="userSpaceOnUse">
<stop stop-color="#00A0FF"/>
<stop offset="0.0066" stop-color="#00A1FF"/>
<stop offset="0.2601" stop-color="#00BEFF"/>
<stop offset="0.5122" stop-color="#00D2FF"/>
<stop offset="0.7604" stop-color="#00DFFF"/>
<stop offset="1" stop-color="#00E3FF"/>
</linearGradient>
<linearGradient id="paint1_linear_1097_15039" x1="38.4808" y1="21.9985" x2="11.1817" y2="21.9985" gradientUnits="userSpaceOnUse">
<stop stop-color="#FFE000"/>
<stop offset="0.4087" stop-color="#FFBD00"/>
<stop offset="0.7754" stop-color="#FFA500"/>
<stop offset="1" stop-color="#FF9C00"/>
</linearGradient>
<linearGradient id="paint2_linear_1097_15039" x1="28.3192" y1="19.4744" x2="3.29305" y2="-6.19341" gradientUnits="userSpaceOnUse">
<stop stop-color="#FF3A44"/>
<stop offset="1" stop-color="#C31162"/>
</linearGradient>
<linearGradient id="paint3_linear_1097_15039" x1="8.54206" y1="43.8062" x2="19.7173" y2="32.3445" gradientUnits="userSpaceOnUse">
<stop stop-color="#32A071"/>
<stop offset="0.0685" stop-color="#2DA771"/>
<stop offset="0.4762" stop-color="#15CF74"/>
<stop offset="0.8009" stop-color="#06E775"/>
<stop offset="1" stop-color="#00F076"/>
</linearGradient>
</defs>
</svg>
