<svg width="153" height="44" viewBox="0 0 153 44" fill="none" xmlns="http://www.w3.org/2000/svg">
<path d="M151.463 38.9253C151.463 41.2701 149.524 43.1695 147.126 43.1695H5.19048C2.79339 43.1695 0.847656 41.2701 0.847656 38.9253V5.07953C0.847656 2.73583 2.79339 0.829834 5.19048 0.829834H147.125C149.524 0.829834 151.462 2.73583 151.462 5.07953L151.463 38.9253Z" fill="white"/>
<path d="M146.667 0.881376C149.278 0.881376 151.404 2.9535 151.404 5.5V38.5C151.404 41.0465 149.278 43.1186 146.667 43.1186H5.64103C3.02923 43.1186 0.903974 41.0465 0.903974 38.5V5.5C0.903974 2.9535 3.02923 0.881376 5.64103 0.881376H146.667ZM146.667 2.32537e-06H5.64103C2.53987 2.32537e-06 0 2.47638 0 5.5V38.5C0 41.5236 2.53987 44 5.64103 44H146.667C149.768 44 152.308 41.5236 152.308 38.5V5.5C152.308 2.47638 149.768 2.32537e-06 146.667 2.32537e-06Z" fill="#A6A6A6"/>
<path d="M33.9923 21.7623C33.9595 18.217 36.9696 16.4922 37.1072 16.4119C35.4025 13.9886 32.7603 13.6575 31.8318 13.6311C29.6126 13.4034 27.46 14.9258 26.3295 14.9258C25.1765 14.9258 23.4357 13.6531 21.5594 13.6905C19.1451 13.7268 16.8864 15.0897 15.6477 17.2061C13.0911 21.5214 14.9978 27.8629 17.4471 31.351C18.6724 33.0593 20.1041 34.9667 21.978 34.8996C23.8113 34.8259 24.4962 33.76 26.7086 33.76C28.9007 33.76 29.5438 34.8996 31.4549 34.8567C33.4225 34.8259 34.6613 33.1407 35.8437 31.417C37.2595 29.459 37.8282 27.5307 37.8507 27.4317C37.8045 27.4163 34.0295 26.0116 33.9923 21.7623Z" fill="black"/>
<path d="M30.382 11.3365C31.3681 10.1342 32.0427 8.49852 31.8554 6.83862C30.4283 6.90022 28.6434 7.80112 27.6157 8.97702C26.7063 10.0132 25.894 11.7116 26.1039 13.3088C27.707 13.4254 29.3531 12.5201 30.382 11.3365Z" fill="black"/>
<path d="M55.3403 11.0106C55.3403 12.3053 54.9421 13.2799 54.1467 13.9344C53.41 14.5383 52.363 14.8408 51.0069 14.8408C50.3345 14.8408 49.7591 14.8122 49.2773 14.755V7.68085C49.9058 7.58185 50.5827 7.53125 51.3138 7.53125C52.6056 7.53125 53.5792 7.80515 54.2358 8.35295C54.9714 8.97225 55.3403 9.85775 55.3403 11.0106ZM54.0937 11.0425C54.0937 10.2032 53.8658 9.55965 53.41 9.11085C52.9542 8.66315 52.2885 8.43875 51.4119 8.43875C51.0396 8.43875 50.7226 8.46295 50.4597 8.51355V13.8915C50.6052 13.9135 50.8715 13.9234 51.2585 13.9234C52.1633 13.9234 52.8617 13.6781 53.3536 13.1875C53.8455 12.6969 54.0937 11.9819 54.0937 11.0425Z" fill="black"/>
<path d="M61.9511 12.1412C61.9511 12.9387 61.7176 13.5921 61.2505 14.1047C60.7609 14.6316 60.1121 14.8945 59.3021 14.8945C58.5214 14.8945 57.8997 14.6426 57.436 14.1366C56.9735 13.6317 56.7422 12.9948 56.7422 12.227C56.7422 11.424 56.9802 10.7651 57.4586 10.2536C57.937 9.74214 58.58 9.48584 59.3901 9.48584C60.1708 9.48584 60.7981 9.73774 61.2731 10.2426C61.7243 10.7332 61.9511 11.3668 61.9511 12.1412ZM60.7248 12.1786C60.7248 11.7001 60.6187 11.2898 60.4077 10.9477C60.1595 10.5341 59.8064 10.3273 59.3472 10.3273C58.8722 10.3273 58.5112 10.5341 58.263 10.9477C58.0509 11.2898 57.946 11.7067 57.946 12.1995C57.946 12.678 58.052 13.0883 58.263 13.4304C58.5191 13.844 58.8756 14.0508 59.3359 14.0508C59.7872 14.0508 60.1415 13.8407 60.3964 13.4194C60.6153 13.0707 60.7248 12.6571 60.7248 12.1786Z" fill="black"/>
<path d="M70.815 9.59155L69.1509 14.777H68.0678L67.3785 12.5253C67.2036 11.9632 67.0615 11.4044 66.9509 10.85H66.9295C66.8268 11.4198 66.6847 11.9775 66.5019 12.5253L65.7697 14.777H64.6742L63.1094 9.59155H64.3245L64.9258 12.0567C65.0713 12.6397 65.1909 13.1952 65.2868 13.721H65.3082C65.3962 13.2876 65.5418 12.7354 65.7471 12.0677L66.5019 9.59265H67.4654L68.1886 12.0149C68.3634 12.6056 68.5056 13.1743 68.615 13.7221H68.6477C68.7278 13.1886 68.8486 12.6199 69.0088 12.0149L69.6541 9.59265H70.815V9.59155Z" fill="black"/>
<path d="M76.943 14.7767H75.7606V11.8067C75.7606 10.8915 75.4041 10.4339 74.6888 10.4339C74.338 10.4339 74.0548 10.5593 73.8348 10.8112C73.617 11.0631 73.5065 11.3601 73.5065 11.7V14.7756H72.3241V11.073C72.3241 10.6176 72.3095 10.1237 72.2812 9.58912H73.3203L73.3756 10.3998H73.4083C73.546 10.1479 73.7513 9.94002 74.0209 9.77392C74.3413 9.58032 74.7001 9.48242 75.0927 9.48242C75.5891 9.48242 76.0021 9.63862 76.3304 9.95212C76.7388 10.336 76.943 10.9091 76.943 11.6703V14.7767Z" fill="black"/>
<path d="M80.2047 14.7769H79.0234V7.21216H80.2047V14.7769Z" fill="black"/>
<path d="M87.1621 12.1412C87.1621 12.9387 86.9285 13.5921 86.4614 14.1047C85.9718 14.6316 85.322 14.8945 84.513 14.8945C83.7312 14.8945 83.1095 14.6426 82.647 14.1366C82.1844 13.6317 81.9531 12.9948 81.9531 12.227C81.9531 11.424 82.1912 10.7651 82.6695 10.2536C83.1479 9.74214 83.791 9.48584 84.5999 9.48584C85.3817 9.48584 86.0079 9.73774 86.484 10.2426C86.9353 10.7332 87.1621 11.3668 87.1621 12.1412ZM85.9346 12.1786C85.9346 11.7001 85.8285 11.2898 85.6175 10.9477C85.3705 10.5341 85.0162 10.3273 84.5581 10.3273C84.082 10.3273 83.721 10.5341 83.4739 10.9477C83.2618 11.2898 83.1569 11.7067 83.1569 12.1995C83.1569 12.678 83.263 13.0883 83.4739 13.4304C83.73 13.844 84.0866 14.0508 84.5469 14.0508C84.9982 14.0508 85.3513 13.8407 85.6063 13.4194C85.8263 13.0707 85.9346 12.6571 85.9346 12.1786Z" fill="black"/>
<path d="M92.8857 14.7768H91.824L91.736 14.1795H91.7033C91.34 14.6558 90.8222 14.8945 90.1498 14.8945C89.6477 14.8945 89.2416 14.7372 88.9358 14.4248C88.6583 14.141 88.5195 13.7879 88.5195 13.3688C88.5195 12.7352 88.7903 12.2523 89.3352 11.9179C89.879 11.5835 90.6439 11.4196 91.6289 11.4273V11.3305C91.6289 10.6474 91.2611 10.3064 90.5243 10.3064C89.9997 10.3064 89.5372 10.4351 89.1378 10.6903L88.8975 9.93354C89.3916 9.63544 90.002 9.48584 90.7218 9.48584C92.1117 9.48584 92.809 10.2008 92.809 11.6308V13.5404C92.809 14.0585 92.8349 14.471 92.8857 14.7768ZM91.6582 12.9948V12.1951C90.354 12.1731 89.7019 12.5218 89.7019 13.2401C89.7019 13.5107 89.7764 13.7131 89.9287 13.8484C90.081 13.9837 90.275 14.0508 90.5063 14.0508C90.7658 14.0508 91.0083 13.9705 91.2295 13.811C91.4517 13.6504 91.5882 13.4469 91.639 13.1972C91.6514 13.1411 91.6582 13.0729 91.6582 12.9948Z" fill="black"/>
<path d="M99.6043 14.7769H98.555L98.4997 13.9442H98.467C98.132 14.5778 97.5611 14.8946 96.7589 14.8946C96.1181 14.8946 95.5845 14.6493 95.1614 14.1587C94.7383 13.6681 94.5273 13.0312 94.5273 12.2491C94.5273 11.4098 94.7564 10.73 95.2167 10.2108C95.6623 9.72676 96.2084 9.48476 96.8582 9.48476C97.5724 9.48476 98.0722 9.71906 98.3565 10.1888H98.379V7.21216H99.5625V13.3799C99.5625 13.8848 99.5761 14.3501 99.6043 14.7769ZM98.379 12.5901V11.7255C98.379 11.5759 98.3677 11.4549 98.3463 11.3625C98.2797 11.0853 98.1365 10.8521 97.9187 10.664C97.6987 10.4759 97.4336 10.3813 97.1278 10.3813C96.6867 10.3813 96.3415 10.5518 96.0876 10.8939C95.8361 11.236 95.7086 11.6727 95.7086 12.2062C95.7086 12.7188 95.8293 13.1346 96.0718 13.4547C96.328 13.7957 96.6732 13.9662 97.1053 13.9662C97.4934 13.9662 97.8036 13.8243 98.0394 13.5394C98.2673 13.2765 98.379 12.9597 98.379 12.5901Z" fill="black"/>
<path d="M109.717 12.1412C109.717 12.9387 109.483 13.5921 109.016 14.1047C108.526 14.6316 107.879 14.8945 107.068 14.8945C106.288 14.8945 105.666 14.6426 105.202 14.1366C104.739 13.6317 104.508 12.9948 104.508 12.227C104.508 11.424 104.746 10.7651 105.224 10.2536C105.703 9.74214 106.346 9.48584 107.157 9.48584C107.936 9.48584 108.565 9.73774 109.039 10.2426C109.49 10.7332 109.717 11.3668 109.717 12.1412ZM108.492 12.1786C108.492 11.7001 108.385 11.2898 108.174 10.9477C107.925 10.5341 107.573 10.3273 107.113 10.3273C106.639 10.3273 106.278 10.5341 106.029 10.9477C105.817 11.2898 105.712 11.7067 105.712 12.1995C105.712 12.678 105.818 13.0883 106.029 13.4304C106.285 13.844 106.641 14.0508 107.102 14.0508C107.553 14.0508 107.908 13.8407 108.163 13.4194C108.381 13.0707 108.492 12.6571 108.492 12.1786Z" fill="black"/>
<path d="M116.075 14.7767H114.893V11.8067C114.893 10.8915 114.537 10.4339 113.821 10.4339C113.47 10.4339 113.186 10.5593 112.968 10.8112C112.749 11.0631 112.639 11.3601 112.639 11.7V14.7756H111.456V11.073C111.456 10.6176 111.442 10.1237 111.414 9.58912H112.452L112.507 10.3998H112.54C112.679 10.1479 112.884 9.94002 113.153 9.77392C113.474 9.58032 113.832 9.48242 114.226 9.48242C114.721 9.48242 115.134 9.63862 115.462 9.95212C115.872 10.336 116.075 10.9091 116.075 11.6703V14.7767Z" fill="black"/>
<path d="M124.032 10.4547H122.73V12.9737C122.73 13.6139 122.961 13.934 123.419 13.934C123.632 13.934 123.808 13.9164 123.946 13.8801L123.977 14.7546C123.743 14.8404 123.436 14.8833 123.058 14.8833C122.591 14.8833 122.228 14.7447 121.965 14.4675C121.701 14.1903 121.57 13.7239 121.57 13.0694V10.4547H120.793V9.5912H121.57V8.6408L122.729 8.2998V9.59011H124.031V10.4547H124.032Z" fill="black"/>
<path d="M130.291 14.7769H129.107V11.8289C129.107 10.8994 128.751 10.4341 128.037 10.4341C127.488 10.4341 127.114 10.7036 126.908 11.2426C126.873 11.3559 126.853 11.4945 126.853 11.6573V14.7758H125.672V7.21216H126.853V10.3373H126.876C127.248 9.76856 127.782 9.48476 128.473 9.48476C128.963 9.48476 129.368 9.64096 129.689 9.95446C130.09 10.345 130.291 10.9258 130.291 11.6936V14.7769Z" fill="black"/>
<path d="M136.748 11.939C136.748 12.1458 136.732 12.3196 136.704 12.4615H133.158C133.174 12.9741 133.343 13.3646 133.671 13.6352C133.971 13.8772 134.358 13.9982 134.832 13.9982C135.357 13.9982 135.835 13.9168 136.266 13.7529L136.451 14.5537C135.947 14.7671 135.353 14.8738 134.666 14.8738C133.843 14.8738 133.194 14.6373 132.725 14.1643C132.253 13.6913 132.02 13.0566 132.02 12.2602C132.02 11.4781 132.237 10.8269 132.676 10.3077C133.134 9.75327 133.754 9.47607 134.535 9.47607C135.3 9.47607 135.881 9.75327 136.274 10.3077C136.591 10.7477 136.748 11.2922 136.748 11.939ZM135.62 11.6409C135.629 11.2988 135.551 11.004 135.391 10.7554C135.185 10.4353 134.873 10.2747 134.45 10.2747C134.064 10.2747 133.749 10.4309 133.509 10.7444C133.312 10.9941 133.196 11.2922 133.158 11.6409H135.62Z" fill="black"/>
<path d="M60.523 34.6544H57.9609L56.5574 30.3545H51.679L50.3421 34.6544H47.8477L52.6809 20.0156H55.6661L60.523 34.6544ZM56.1343 28.5505L54.8651 24.728C54.7308 24.3375 54.4792 23.4179 54.1081 21.9703H54.0629C53.9151 22.5929 53.6771 23.5125 53.3499 24.728L52.1032 28.5505H56.1343Z" fill="black"/>
<path d="M72.9531 29.2475C72.9531 31.0427 72.4555 32.4617 71.4605 33.5034C70.5692 34.4307 69.4624 34.8938 68.1413 34.8938C66.7152 34.8938 65.6908 34.3944 65.0669 33.3956H65.0218V38.9561H62.6165V27.5744C62.6165 26.4458 62.586 25.2875 62.5273 24.0995H64.6427L64.777 25.7726H64.8221C65.6243 24.512 66.8416 23.8828 68.4752 23.8828C69.7524 23.8828 70.8185 24.3745 71.6714 25.359C72.5266 26.3446 72.9531 27.6404 72.9531 29.2475ZM70.5026 29.3333C70.5026 28.3059 70.2657 27.4589 69.7896 26.7923C69.2695 26.0971 68.5711 25.7495 67.6956 25.7495C67.1022 25.7495 66.5629 25.9431 66.0812 26.3248C65.5983 26.7098 65.2824 27.2125 65.1346 27.8351C65.0602 28.1255 65.0229 28.3631 65.0229 28.5501V30.3101C65.0229 31.0779 65.2644 31.7258 65.7472 32.2549C66.2301 32.784 66.8574 33.048 67.6291 33.048C68.535 33.048 69.2402 32.707 69.7445 32.0272C70.2499 31.3463 70.5026 30.4487 70.5026 29.3333Z" fill="black"/>
<path d="M85.4051 29.2475C85.4051 31.0427 84.9075 32.4617 83.9113 33.5034C83.0212 34.4307 81.9144 34.8938 80.5933 34.8938C79.1672 34.8938 78.1428 34.3944 77.5201 33.3956H77.4749V38.9561H75.0696V27.5744C75.0696 26.4458 75.0391 25.2875 74.9805 24.0995H77.0959L77.2301 25.7726H77.2752C78.0763 24.512 79.2936 23.8828 80.9284 23.8828C82.2044 23.8828 83.2705 24.3745 84.1257 25.359C84.9775 26.3446 85.4051 27.6404 85.4051 29.2475ZM82.9546 29.3333C82.9546 28.3059 82.7166 27.4589 82.2405 26.7923C81.7204 26.0971 81.0243 25.7495 80.1477 25.7495C79.5531 25.7495 79.0149 25.9431 78.5321 26.3248C78.0492 26.7098 77.7344 27.2125 77.5866 27.8351C77.5133 28.1255 77.4749 28.3631 77.4749 28.5501V30.3101C77.4749 31.0779 77.7164 31.7258 78.197 32.2549C78.6799 32.7829 79.3071 33.048 80.0811 33.048C80.987 33.048 81.6922 32.707 82.1965 32.0272C82.7019 31.3463 82.9546 30.4487 82.9546 29.3333Z" fill="black"/>
<path d="M99.3262 30.5494C99.3262 31.7946 98.8828 32.8077 97.9926 33.5898C97.0145 34.4445 95.6527 34.8713 93.9029 34.8713C92.2873 34.8713 90.9921 34.5677 90.0117 33.9594L90.5691 32.0047C91.6251 32.6273 92.7837 32.9397 94.0462 32.9397C94.9521 32.9397 95.6573 32.7395 96.1638 32.3413C96.6681 31.9431 96.9197 31.4085 96.9197 30.7419C96.9197 30.1479 96.7121 29.6474 96.2958 29.2415C95.8818 28.8356 95.1902 28.4583 94.2244 28.1096C91.5957 27.1537 90.2825 25.7534 90.2825 23.912C90.2825 22.7086 90.7428 21.7219 91.6645 20.9541C92.5829 20.1852 93.8081 19.8013 95.3402 19.8013C96.7065 19.8013 97.8415 20.0334 98.7474 20.4965L98.1461 22.4083C97.2999 21.9595 96.3432 21.7351 95.2725 21.7351C94.4264 21.7351 93.7653 21.9386 93.2914 22.3434C92.8909 22.7053 92.6901 23.1464 92.6901 23.6689C92.6901 24.2475 92.9191 24.726 93.3794 25.1022C93.7799 25.4498 94.5076 25.826 95.5636 26.2319C96.8554 26.739 97.8042 27.3319 98.4146 28.0117C99.0227 28.6893 99.3262 29.5374 99.3262 30.5494Z" fill="black"/>
<path d="M107.281 25.8591H104.629V30.984C104.629 32.2875 105.097 32.9387 106.033 32.9387C106.463 32.9387 106.819 32.9024 107.101 32.8298L107.168 34.6107C106.694 34.7834 106.07 34.8703 105.297 34.8703C104.347 34.8703 103.605 34.5876 103.069 34.0233C102.536 33.4579 102.267 32.5097 102.267 31.1776V25.8569H100.688V24.0969H102.267V22.1642L104.629 21.469V24.0969H107.281V25.8591Z" fill="black"/>
<path d="M119.241 29.2898C119.241 30.9123 118.765 32.2444 117.815 33.2861C116.818 34.3586 115.496 34.8932 113.848 34.8932C112.259 34.8932 110.995 34.3795 110.051 33.3521C109.108 32.3247 108.637 31.0278 108.637 29.4647C108.637 27.829 109.122 26.4892 110.095 25.4475C111.067 24.4047 112.378 23.8833 114.026 23.8833C115.615 23.8833 116.893 24.397 117.858 25.4255C118.78 26.4232 119.241 27.7113 119.241 29.2898ZM116.745 29.3657C116.745 28.3922 116.532 27.5573 116.1 26.861C115.595 26.0184 114.875 25.5982 113.94 25.5982C112.974 25.5982 112.239 26.0195 111.735 26.861C111.303 27.5584 111.089 28.4065 111.089 29.4097C111.089 30.3832 111.303 31.2181 111.735 31.9133C112.255 32.7559 112.981 33.1761 113.919 33.1761C114.837 33.1761 115.558 32.7471 116.078 31.8913C116.522 31.1818 116.745 30.3381 116.745 29.3657Z" fill="black"/>
<path d="M127.062 26.162C126.824 26.1191 126.57 26.0971 126.304 26.0971C125.457 26.0971 124.803 26.4084 124.343 27.0321C123.942 27.5821 123.741 28.2773 123.741 29.1166V34.6551H121.337L121.36 27.4237C121.36 26.2071 121.329 25.0994 121.27 24.1006H123.365L123.453 26.1202H123.519C123.773 25.4261 124.174 24.8673 124.722 24.4482C125.258 24.0709 125.837 23.8828 126.46 23.8828C126.683 23.8828 126.884 23.8982 127.062 23.9257V26.162Z" fill="black"/>
<path d="M137.817 28.8777C137.817 29.2979 137.788 29.6521 137.729 29.9414H130.513C130.541 30.9842 130.889 31.7817 131.56 32.3317C132.168 32.8234 132.954 33.0698 133.92 33.0698C134.988 33.0698 135.963 32.9037 136.84 32.5704L137.216 34.1984C136.192 34.634 134.983 34.8507 133.587 34.8507C131.908 34.8507 130.59 34.3689 129.632 33.4064C128.675 32.4439 128.195 31.1514 128.195 29.53C128.195 27.9383 128.641 26.6128 129.533 25.5557C130.468 24.4271 131.73 23.8628 133.318 23.8628C134.879 23.8628 136.06 24.4271 136.862 25.5557C137.497 26.4522 137.817 27.561 137.817 28.8777ZM135.523 28.2694C135.539 27.5742 135.382 26.9736 135.056 26.4665C134.64 25.8142 134 25.4886 133.139 25.4886C132.353 25.4886 131.713 25.8065 131.225 26.4445C130.824 26.9516 130.586 27.5599 130.513 28.2683H135.523V28.2694Z" fill="black"/>
</svg>
