<svg width="25" height="24" viewBox="0 0 25 24" fill="none" xmlns="http://www.w3.org/2000/svg">
<path d="M20.1909 19.6898C21.8018 18.0789 19.6649 13.3302 15.4179 9.08321C11.171 4.83625 6.42226 2.69932 4.81135 4.31024C3.20043 5.92115 5.33737 10.6699 9.58432 14.9168C13.8313 19.1638 18.58 21.3007 20.1909 19.6898Z" stroke="#6D6D7B" stroke-width="1.5" stroke-linecap="round" stroke-linejoin="round"/>
<path d="M15.4179 14.9168C19.6649 10.6698 21.8018 5.9211 20.1909 4.31019C18.58 2.69928 13.8313 4.83621 9.58432 9.08316C5.33737 13.3301 3.20043 18.0789 4.81135 19.6898C6.42226 21.3007 11.171 19.1637 15.4179 14.9168Z" stroke="#6D6D7B" stroke-width="1.5" stroke-linecap="round" stroke-linejoin="round"/>
<path d="M12.5 12.9375C13.0178 12.9375 13.4375 12.5178 13.4375 12C13.4375 11.4822 13.0178 11.0625 12.5 11.0625C11.9822 11.0625 11.5625 11.4822 11.5625 12C11.5625 12.5178 11.9822 12.9375 12.5 12.9375Z" fill="#6D6D7B"/>
</svg>
