<svg width="25" height="24" viewBox="0 0 25 24" fill="none" xmlns="http://www.w3.org/2000/svg">
<path d="M12.5 18V20.25" stroke="#6D6D7B" stroke-width="1.5" stroke-linecap="round" stroke-linejoin="round"/>
<path d="M9.125 14.0625C9.64277 14.0625 10.0625 13.6428 10.0625 13.125C10.0625 12.6072 9.64277 12.1875 9.125 12.1875C8.60723 12.1875 8.1875 12.6072 8.1875 13.125C8.1875 13.6428 8.60723 14.0625 9.125 14.0625Z" fill="#6D6D7B"/>
<path d="M15.875 14.0625C16.3928 14.0625 16.8125 13.6428 16.8125 13.125C16.8125 12.6072 16.3928 12.1875 15.875 12.1875C15.3572 12.1875 14.9375 12.6072 14.9375 13.125C14.9375 13.6428 15.3572 14.0625 15.875 14.0625Z" fill="#6D6D7B"/>
<path d="M14 16.5L12.5 18L11 16.5" stroke="#6D6D7B" stroke-width="1.5" stroke-linecap="round" stroke-linejoin="round"/>
<path d="M14.75 4.49989L19.9813 3.19677C20.0799 3.17194 20.1825 3.16743 20.2829 3.1835C20.3833 3.19957 20.4794 3.2359 20.5653 3.29026C20.6513 3.34463 20.7253 3.4159 20.7828 3.49975C20.8403 3.5836 20.8802 3.67828 20.9 3.77802L22.4375 11.9905C22.5781 12.7593 21.5938 13.2093 21.1063 12.5905L14.75 4.49989Z" stroke="#6D6D7B" stroke-width="1.5" stroke-linecap="round" stroke-linejoin="round"/>
<path d="M10.2499 4.49989L5.01869 3.19677C4.92008 3.17194 4.81745 3.16743 4.71704 3.1835C4.61663 3.19957 4.52053 3.2359 4.4346 3.29026C4.34866 3.34463 4.27468 3.4159 4.21715 3.49975C4.15962 3.5836 4.11974 3.67828 4.09994 3.77802L2.56244 11.9905C2.42181 12.7593 3.40619 13.2093 3.89369 12.5905L10.2499 4.49989Z" stroke="#6D6D7B" stroke-width="1.5" stroke-linecap="round" stroke-linejoin="round"/>
<path d="M10.25 4.5H14.75" stroke="#6D6D7B" stroke-width="1.5" stroke-linecap="round" stroke-linejoin="round"/>
<path d="M20 11.1843V17.25C20 18.0456 19.6839 18.8087 19.1213 19.3713C18.5587 19.9339 17.7956 20.25 17 20.25H8C7.20435 20.25 6.44129 19.9339 5.87868 19.3713C5.31607 18.8087 5 18.0456 5 17.25V11.1843" stroke="#6D6D7B" stroke-width="1.5" stroke-linecap="round" stroke-linejoin="round"/>
</svg>
