<svg width="25" height="24" viewBox="0 0 25 24" fill="none" xmlns="http://www.w3.org/2000/svg">
<path d="M3.5 12H7.25L8.75 9.75L11.75 14.25L13.25 12H15.5" stroke="#6D6D7B" stroke-width="1.5" stroke-linecap="round" stroke-linejoin="round"/>
<path d="M3.13438 9.00001C3.125 8.87813 3.125 8.74688 3.125 8.62501C3.125 7.49803 3.51546 6.40585 4.22996 5.53431C4.94445 4.66277 5.93884 4.0657 7.04393 3.84468C8.14903 3.62366 9.29657 3.79235 10.2913 4.32204C11.2861 4.85174 12.0665 5.70972 12.5 6.75001V6.75001C12.9335 5.70972 13.7139 4.85174 14.7087 4.32204C15.7034 3.79235 16.851 3.62366 17.9561 3.84468C19.0612 4.0657 20.0555 4.66277 20.77 5.53431C21.4845 6.40585 21.875 7.49803 21.875 8.62501C21.875 15 12.5 20.25 12.5 20.25C12.5 20.25 8.75938 18.15 6.00313 15" stroke="#6D6D7B" stroke-width="1.5" stroke-linecap="round" stroke-linejoin="round"/>
</svg>
